<?xml version="1.0" encoding="UTF-8"?>
<svg version="1.1" xmlns="http://www.w3.org/2000/svg" width="308" height="232">
<path d="M0 0 C0.71353638 0.00202423 1.42707275 0.00404846 2.16223145 0.00613403 C2.89091431 0.00517731 3.61959717 0.00422058 4.37036133 0.00323486 C5.91377855 0.00255318 7.45719861 0.00440666 9.00061035 0.00857544 C11.37095544 0.01392391 13.74111104 0.00863011 16.1114502 0.00222778 C17.60754437 0.00288857 19.10363842 0.00416973 20.59973145 0.00613403 C21.31326782 0.0041098 22.0268042 0.00208557 22.76196289 0 C27.76602953 0.02399462 27.76602953 0.02399462 28.88098145 1.13894653 C28.96767577 2.62766513 28.98801638 4.12039153 28.9786377 5.61160278 C28.97614014 6.4212146 28.97364258 7.23082642 28.97106934 8.06497192 C28.96196533 9.10000854 28.95286133 10.13504517 28.94348145 11.20144653 C28.92285645 14.48082153 28.90223145 17.76019653 28.88098145 21.13894653 C18.48598145 21.63394653 18.48598145 21.63394653 7.88098145 22.13894653 C7.19133301 23.60203247 6.50168457 25.06511841 5.7911377 26.57254028 C-2.86707272 44.85649753 -2.86707272 44.85649753 -7.61901855 53.63894653 C-11.17151453 60.20694258 -14.42863652 66.88802765 -17.61901855 73.63894653 C-20.80940498 80.38987472 -24.06669272 87.07085656 -27.61901855 93.63894653 C-31.14887815 100.16645444 -34.3869254 106.80449611 -37.55651855 113.51394653 C-41.30125628 121.4344569 -45.20033532 129.23621364 -49.32727051 136.96389771 C-54.45575755 146.58839597 -59.27837054 156.36739172 -64.11901855 166.13894653 C-68.37316478 166.16360275 -72.62727353 166.18178552 -76.88146973 166.19387817 C-78.32971928 166.19891754 -79.77796372 166.20574906 -81.22619629 166.21438599 C-83.30376443 166.226469 -85.38126553 166.23217865 -87.4588623 166.23660278 C-88.71046143 166.2418396 -89.96206055 166.24707642 -91.25158691 166.25247192 C-94.11901855 166.13894653 -94.11901855 166.13894653 -95.11901855 165.13894653 C-95.21974805 163.35930097 -95.24978579 161.57562814 -95.25273132 159.7931366 C-95.25699631 158.63349899 -95.26126129 157.47386139 -95.26565552 156.27908325 C-95.26520233 154.9954187 -95.26474915 153.71175415 -95.26428223 152.38919067 C-95.26727218 151.03269864 -95.27067433 149.67620746 -95.27445984 148.31971741 C-95.28332072 144.62554075 -95.28563883 140.93138723 -95.28627563 137.23720098 C-95.28722301 134.15801511 -95.29089933 131.07883468 -95.29444772 127.9996509 C-95.30260023 120.73756762 -95.30503123 113.47549675 -95.30432129 106.21340942 C-95.30372029 98.71133062 -95.31427471 91.20932367 -95.33006495 83.70726305 C-95.34312152 77.27583891 -95.34850598 70.8444383 -95.34786588 64.413001 C-95.34761033 60.56760126 -95.35049246 56.72226533 -95.36104393 52.87687874 C-95.37069334 49.26130142 -95.37082598 45.64584933 -95.3635273 42.03026772 C-95.36197547 40.06495181 -95.3703502 38.09963601 -95.37896729 36.13433838 C-95.3747728 34.97188095 -95.37057831 33.80942352 -95.36625671 32.61174011 C-95.36680148 31.59722306 -95.36734625 30.58270601 -95.36790752 29.53744602 C-95.11901855 27.13894653 -95.11901855 27.13894653 -93.11901855 25.13894653 C-91.14782715 24.91189575 -91.14782715 24.91189575 -88.76745605 24.94363403 C-87.9166748 24.95007935 -87.06589355 24.95652466 -86.18933105 24.96316528 C-84.85515137 24.988302 -84.85515137 24.988302 -83.49401855 25.01394653 C-82.1482373 25.02748169 -82.1482373 25.02748169 -80.77526855 25.04129028 C-78.5562527 25.06489683 -76.33776778 25.09782344 -74.11901855 25.13894653 C-73.28560706 28.04697096 -72.99518448 30.62298609 -72.99876404 33.64413452 C-72.99738937 34.54153351 -72.99601471 35.4389325 -72.99459839 36.36352539 C-72.99819366 37.34032257 -73.00178894 38.31711975 -73.00549316 39.32351685 C-73.00534714 40.35797943 -73.00520111 41.39244202 -73.00505066 42.45825195 C-73.00574739 45.8778798 -73.01352862 49.2974532 -73.0213623 52.71707153 C-73.02322734 55.08790049 -73.02465084 57.45872984 -73.02565002 59.82955933 C-73.0294685 66.0701097 -73.0392931 72.3106368 -73.050354 78.55117798 C-73.0605825 84.91897263 -73.06515073 91.28677104 -73.07019043 97.65457153 C-73.08091594 110.14937342 -73.09798436 122.64415804 -73.11901855 135.13894653 C-72.65753418 134.13218872 -72.1960498 133.12543091 -71.72058105 132.08816528 C-68.10387387 124.26555204 -64.35095178 116.54591553 -60.30236816 108.93704224 C-54.75068641 98.50278457 -49.45916569 87.94628273 -44.1854248 77.36941528 C-43.17574992 75.34819333 -42.16589416 73.32706172 -41.15586853 71.30601501 C-38.5299209 66.05034959 -35.90637808 60.79348752 -33.28338623 55.53634644 C-30.60572534 50.17072007 -27.92574866 44.80625065 -25.24597168 39.44168091 C-20.92924996 30.79950296 -16.61391399 22.15663487 -12.30041504 13.5128479 C-11.56688183 12.04296755 -10.83284494 10.57333839 -10.09817696 9.10402489 C-9.19398209 7.28939126 -8.2996564 5.46984898 -7.40623474 3.64988708 C-5.36406307 -0.33372632 -4.39720172 0.02108469 0 0 Z " fill="#CD8C57" transform="translate(260.1190185546875,22.861053466796875)"/>
<path d="M0 0 C1.20970459 0.00523682 2.41940918 0.01047363 3.66577148 0.01586914 C4.97094727 0.0190918 6.27612305 0.02231445 7.62084961 0.02563477 C9.00952213 0.03399138 10.39819401 0.04245634 11.78686523 0.05102539 C13.17944179 0.05603873 14.57202005 0.06060193 15.96459961 0.06469727 C19.38456394 0.07653105 22.80444367 0.09301659 26.22436523 0.11352539 C27.5333353 2.73146552 27.35025896 4.65352302 27.35134888 7.58631897 C27.35557861 9.33000511 27.35557861 9.33000511 27.3598938 11.10891724 C27.35685745 13.03137772 27.35685745 13.03137772 27.35375977 14.99267578 C27.35511422 16.35093737 27.3568944 17.70919859 27.35906982 19.06745911 C27.36363846 22.761514 27.36185704 26.45554105 27.35869074 30.14959645 C27.35616473 34.00886566 27.3585053 37.86813243 27.3600769 41.72740173 C27.36189767 48.20808339 27.35949448 54.68875366 27.35473633 61.16943359 C27.34929159 68.67210046 27.35105827 76.17474016 27.35656273 83.67740637 C27.36109376 90.1096832 27.36174453 96.54195184 27.35912406 102.97422975 C27.35756153 106.82012054 27.35736693 110.66599853 27.36066055 114.5118885 C27.3635392 118.1258071 27.36156371 121.7396905 27.3557663 125.35360527 C27.35380317 127.32029038 27.3567925 129.28697846 27.3598938 131.25366211 C27.35707397 132.41329971 27.35425415 133.57293732 27.35134888 134.76771545 C27.35078334 136.28892549 27.35078334 136.28892549 27.35020638 137.84086704 C27.22436523 140.11352539 27.22436523 140.11352539 26.22436523 141.11352539 C19.62436523 141.11352539 13.02436523 141.11352539 6.22436523 141.11352539 C5.72936523 87.15852539 5.72936523 87.15852539 5.22436523 32.11352539 C2.58436523 37.39352539 -0.05563477 42.67352539 -2.77563477 48.11352539 C-3.9396582 50.4299707 -5.10368164 52.74641602 -6.30297852 55.13305664 C-11.87597401 66.22852257 -17.40275553 77.33317709 -22.65429688 88.58544922 C-25.38571518 94.3953651 -28.35540946 100.05238785 -31.40185547 105.70214844 C-34.61924591 111.71125242 -37.52017514 117.84610062 -40.3984375 124.02319336 C-43.2290909 130.05855739 -46.28790904 135.93968332 -49.45336914 141.80493164 C-52.62286399 147.71908605 -55.50092546 153.74980453 -58.30126953 159.84643555 C-60.68436986 165.02226048 -60.68436986 165.02226048 -61.77563477 166.11352539 C-64.2848763 166.21439751 -66.7659986 166.25324571 -69.27563477 166.24633789 C-70.02651367 166.24729462 -70.77739258 166.24825134 -71.55102539 166.24923706 C-73.14152103 166.24991877 -74.73201944 166.24806511 -76.32250977 166.24389648 C-78.76528131 166.23854806 -81.20786898 166.24384173 -83.65063477 166.25024414 C-85.19230184 166.24958336 -86.7339688 166.24830219 -88.27563477 166.24633789 C-89.01104492 166.24836212 -89.74645508 166.25038635 -90.50415039 166.25247192 C-95.66068316 166.228477 -95.66068316 166.228477 -96.77563477 165.11352539 C-96.87423608 163.71003804 -96.90642413 162.30172062 -96.90844727 160.89477539 C-96.90973633 160.0452832 -96.91102539 159.19579102 -96.91235352 158.32055664 C-96.90848633 157.42723633 -96.90461914 156.53391602 -96.90063477 155.61352539 C-96.90450195 154.72020508 -96.90836914 153.82688477 -96.91235352 152.90649414 C-96.91106445 152.05700195 -96.90977539 151.20750977 -96.90844727 150.33227539 C-96.90731934 149.54788086 -96.90619141 148.76348633 -96.9050293 147.95532227 C-96.77563477 146.11352539 -96.77563477 146.11352539 -95.77563477 145.11352539 C-94.21614935 144.95666291 -92.65020809 144.862759 -91.08422852 144.79711914 C-89.66787109 144.73427734 -89.66787109 144.73427734 -88.22290039 144.67016602 C-87.22967773 144.63084961 -86.23645508 144.5915332 -85.21313477 144.55102539 C-84.21604492 144.5078418 -83.21895508 144.4646582 -82.19165039 144.42016602 C-79.71979327 144.31372241 -77.24783167 144.21170611 -74.77563477 144.11352539 C-74.21875977 142.92758789 -73.66188477 141.74165039 -73.08813477 140.51977539 C-68.43409278 130.63520266 -63.68020618 120.81293794 -58.75512695 111.06079102 C-57.76761163 109.0975751 -56.78971932 107.12984793 -55.81469727 105.16040039 C-52.46363413 98.4001536 -49.03456041 91.69762654 -45.46313477 85.05102539 C-40.81805943 76.38332698 -36.61986766 67.51548411 -32.40454102 58.63305664 C-27.28079417 47.84456913 -21.86323651 37.23748852 -16.21850586 26.71362305 C-12.79672568 20.27498075 -9.67457836 13.7059054 -6.60595703 7.09277344 C-6.24945068 6.32618408 -5.89294434 5.55959473 -5.52563477 4.76977539 C-5.05383789 3.7459375 -5.05383789 3.7459375 -4.57250977 2.70141602 C-3.24822454 0.06258296 -3.15619456 0.12909055 0 0 Z " fill="#CD8C56" transform="translate(130.775634765625,47.886474609375)"/>
<path d="M0 0 C0.33 0 0.66 0 1 0 C1 35.97 1 71.94 1 109 C6.61 109.33 12.22 109.66 18 110 C18.33 109.34 18.66 108.68 19 108 C19 109.32 19 110.64 19 112 C12.4 112 5.8 112 -1 112 C-1.02312951 97.69232589 -1.04091821 83.38465621 -1.05181217 69.07696724 C-1.05703966 62.43395453 -1.0641349 55.79095458 -1.07543945 49.14794922 C-1.08627306 42.74188994 -1.09227785 36.33584296 -1.09487724 29.92977524 C-1.09673063 27.48085206 -1.1003496 25.03192959 -1.10573006 22.58301163 C-1.11294674 19.16356175 -1.11399067 15.74416325 -1.11352539 12.32470703 C-1.11712067 11.30331635 -1.12071594 10.28192566 -1.12442017 9.22958374 C-1.1230455 8.30127747 -1.12167084 7.37297119 -1.12025452 6.41653442 C-1.12117631 5.60720018 -1.1220981 4.79786594 -1.12304783 3.96400642 C-1 2 -1 2 0 0 Z " fill="#C0916B" transform="translate(138,77)"/>
<path d="M0 0 C0.66 0 1.32 0 2 0 C2.91289524 2.73868572 3.12553471 4.33123658 3.12698364 7.14801025 C3.13121338 8.4137664 3.13121338 8.4137664 3.13552856 9.70509338 C3.13350433 10.62773483 3.1314801 11.55037628 3.12939453 12.50097656 C3.13114685 13.47528122 3.13289917 14.44958588 3.13470459 15.45341492 C3.13911468 18.68250294 3.13618714 21.9115364 3.1328125 25.140625 C3.133486 27.38401297 3.13445641 29.62740086 3.13571167 31.87078857 C3.13718768 36.57841688 3.13503798 41.28602624 3.13037109 45.99365234 C3.12468699 52.02052452 3.12794506 58.04735204 3.13394356 64.07422256 C3.13756297 68.71024917 3.136404 73.34626525 3.13381577 77.98229218 C3.13314964 80.2037939 3.13396394 82.42529658 3.13629532 84.64679718 C3.138843 87.75837214 3.13495082 90.86987565 3.12939453 93.98144531 C3.13141876 94.89598984 3.13344299 95.81053436 3.13552856 96.75279236 C3.11951416 101.60918876 2.81966959 106.21134777 2 111 C1.34 110.67 0.68 110.34 0 110 C0 73.7 0 37.4 0 0 Z " fill="#D39462" transform="translate(184,49)"/>
<path d="M0 0 C0.495 1.485 0.495 1.485 1 3 C-9.395 3.495 -9.395 3.495 -20 4 C-20.71285156 5.50949219 -21.42570312 7.01898438 -22.16015625 8.57421875 C-27.1945233 19.19274831 -32.23709306 29.75264671 -38 40 C-38.33 40 -38.66 40 -39 40 C-39.32839609 35.2929894 -38.70790893 32.8535627 -36 29 C-35.34 28.01 -34.68 27.02 -34 26 C-33.34 26 -32.68 26 -32 26 C-32.04125 24.906875 -32.0825 23.81375 -32.125 22.6875 C-32 19 -32 19 -30 16 C-29.34 16 -28.68 16 -28 16 C-27.9175 15.34 -27.835 14.68 -27.75 14 C-26.73979683 9.9591873 -25.01230249 5.01230249 -22 2 C-20.45184595 1.85518713 -18.89771646 1.77297155 -17.34375 1.71875 C-16.40402344 1.68136719 -15.46429688 1.64398438 -14.49609375 1.60546875 C-12.49869792 1.53515625 -10.50130208 1.46484375 -8.50390625 1.39453125 C-7.56417969 1.35714844 -6.62445313 1.31976563 -5.65625 1.28125 C-4.35397461 1.23581055 -4.35397461 1.23581055 -3.02539062 1.18945312 C-1.0050587 1.21778499 -1.0050587 1.21778499 0 0 Z " fill="#DAA16C" transform="translate(288,41)"/>
<path d="M0 0 C1.2065625 0.0309375 1.2065625 0.0309375 2.4375 0.0625 C2.7675 0.7225 3.0975 1.3825 3.4375 2.0625 C2.674375 2.31 1.91125 2.5575 1.125 2.8125 C-1.91063868 4.22442497 -3.00754874 5.11627656 -4.5625 8.0625 C-4.81336724 11.22982421 -4.81336724 11.22982421 -4.5625 14.0625 C-5.5525 14.5575 -5.5525 14.5575 -6.5625 15.0625 C-6.8925 16.0525 -7.2225 17.0425 -7.5625 18.0625 C-8.2225 18.0625 -8.8825 18.0625 -9.5625 18.0625 C-9.8925 19.7125 -10.2225 21.3625 -10.5625 23.0625 C-11.5525 23.3925 -12.5425 23.7225 -13.5625 24.0625 C-13.2325 25.0525 -12.9025 26.0425 -12.5625 27.0625 C-13.87915664 28.74237227 -15.21513027 30.40716005 -16.5625 32.0625 C-17.81806887 35.24171787 -17.81806887 35.24171787 -18.5625 38.0625 C-19.2225 38.0625 -19.8825 38.0625 -20.5625 38.0625 C-20.8925 39.0525 -21.2225 40.0425 -21.5625 41.0625 C-21.8925 40.4025 -22.2225 39.7425 -22.5625 39.0625 C-21.54058281 36.66378026 -20.45778808 34.3912617 -19.265625 32.078125 C-18.74147003 31.03830475 -18.74147003 31.03830475 -18.20672607 29.97747803 C-17.082748 27.75196518 -15.94782477 25.53224242 -14.8125 23.3125 C-14.0617685 21.83109964 -13.31175953 20.34933289 -12.5625 18.8671875 C-10.86679113 15.51570748 -9.16364666 12.16811826 -7.45471191 8.82336426 C-6.58519427 7.10728928 -5.73518678 5.38137255 -4.88574219 3.65527344 C-3.05831395 0.07459302 -3.05831395 0.07459302 0 0 Z " fill="#CA9A75" transform="translate(257.5625,22.9375)"/>
<path d="M0 0 C0.33 0 0.66 0 1 0 C1.80746306 5.66066087 2.147873 11.1339931 2.1328125 16.84765625 C2.13376923 17.66318466 2.13472595 18.47871307 2.13571167 19.31895447 C2.13638767 21.03075234 2.13457419 22.74255286 2.13037109 24.4543457 C2.12500759 27.05881554 2.13033947 29.66311351 2.13671875 32.26757812 C2.136058 33.94010454 2.1347769 35.61263086 2.1328125 37.28515625 C2.13483673 38.05513443 2.13686096 38.82511261 2.13894653 39.61842346 C2.1193725 44.17907868 1.74873874 48.49976046 1 53 C0.34 52.67 -0.32 52.34 -1 52 C-0.67 34.84 -0.34 17.68 0 0 Z " fill="#E2C09D" transform="translate(185,107)"/>
<path d="M0 0 C0.99 1.32 1.98 2.64 3 4 C2.41347656 4.68191406 1.82695312 5.36382812 1.22265625 6.06640625 C-1.17141373 9.22624202 -2.83269926 12.37341391 -4.5625 15.9375 C-5.14128906 17.12214844 -5.72007812 18.30679688 -6.31640625 19.52734375 C-7.14978516 21.24630859 -7.14978516 21.24630859 -8 23 C-8.99727304 25.00136116 -9.99634091 27.00183373 -11 29 C-11.66 29 -12.32 29 -13 29 C-13 29.99 -13 30.98 -13 32 C-13.66 32 -14.32 32 -15 32 C-13.66017669 27.6865604 -11.99589931 23.75658491 -9.9609375 19.7265625 C-9.38085938 18.57285156 -8.80078125 17.41914062 -8.203125 16.23046875 C-7.59383809 15.02860117 -6.98446198 13.82677881 -6.375 12.625 C-5.75744122 11.39992668 -5.14025018 10.1746679 -4.5234375 8.94921875 C-3.01922833 5.96430368 -1.51130878 2.98132497 0 0 Z " fill="#C79670" transform="translate(234,64)"/>
<path d="M0 0 C0.66 0 1.32 0 2 0 C3.03701461 3.11104384 3.08877082 5.13412808 3.02172852 8.3894043 C3.00163223 9.49031906 2.98153595 10.59123383 2.96083069 11.72550964 C2.93379562 12.91308365 2.90676056 14.10065765 2.87890625 15.32421875 C2.85529526 16.54075638 2.83168427 17.75729401 2.80735779 19.01069641 C2.73067585 22.90308164 2.64667058 26.79527019 2.5625 30.6875 C2.50928388 33.32355803 2.45654345 35.9596257 2.40429688 38.59570312 C2.2750545 45.06392425 2.1397963 51.53199884 2 58 C1.67 58 1.34 58 1 58 C0.505 29.29 0.505 29.29 0 0 Z " fill="#D09C71" transform="translate(184,49)"/>
<path d="M0 0 C0.33 0.99 0.66 1.98 1 3 C-9.395 3.495 -9.395 3.495 -20 4 C-21.65 7.3 -23.3 10.6 -25 14 C-25.99 13.67 -26.98 13.34 -28 13 C-27.18993474 11.35296694 -26.3768779 9.70740494 -25.5625 8.0625 C-25.11003906 7.14597656 -24.65757812 6.22945312 -24.19140625 5.28515625 C-23 3 -23 3 -22 2 C-20.45184595 1.85518713 -18.89771646 1.77297155 -17.34375 1.71875 C-16.40402344 1.68136719 -15.46429688 1.64398438 -14.49609375 1.60546875 C-12.49869792 1.53515625 -10.50130208 1.46484375 -8.50390625 1.39453125 C-7.56417969 1.35714844 -6.62445313 1.31976563 -5.65625 1.28125 C-4.35397461 1.23581055 -4.35397461 1.23581055 -3.02539062 1.18945312 C-1.0050587 1.21778499 -1.0050587 1.21778499 0 0 Z " fill="#CB9971" transform="translate(288,41)"/>
<path d="M0 0 C3.81248426 -0.02887236 7.6249407 -0.04675492 11.4375 -0.0625 C12.52611328 -0.07087891 13.61472656 -0.07925781 14.73632812 -0.08789062 C15.77080078 -0.09111328 16.80527344 -0.09433594 17.87109375 -0.09765625 C18.82943115 -0.10289307 19.78776855 -0.10812988 20.77514648 -0.11352539 C23 0 23 0 24 1 C24.04063832 2.66617115 24.042721 4.33388095 24 6 C23.34 5.01 22.68 4.02 22 3 C19.68246412 2.49156938 19.68246412 2.49156938 16.9921875 2.48828125 C15.51298828 2.43510742 15.51298828 2.43510742 14.00390625 2.38085938 C12.45509766 2.34702148 12.45509766 2.34702148 10.875 2.3125 C9.31458984 2.26125977 9.31458984 2.26125977 7.72265625 2.20898438 C5.14854493 2.12632942 2.57478171 2.05723845 0 2 C0 1.34 0 0.68 0 0 Z " fill="#BB8A6F" transform="translate(265,23)"/>
<path d="M0 0 C2 3.75 2 3.75 2 6 C1.3709375 6.43054688 0.741875 6.86109375 0.09375 7.3046875 C-3.10066936 9.89121363 -3.23833436 12.93717569 -4.09375 16.8203125 C-4.3928125 17.53960937 -4.691875 18.25890625 -5 19 C-7.09375 19.8046875 -7.09375 19.8046875 -9 20 C-7.55676531 15.26210835 -5.62773267 11.01141849 -3.375 6.625 C-2.88773438 5.66400391 -2.88773438 5.66400391 -2.390625 4.68359375 C-1.59742593 3.12052499 -0.79922969 1.55999378 0 0 Z " fill="#C7926A" transform="translate(218,96)"/>
<path d="M0 0 C0.33 0 0.66 0 1 0 C1.33 1.98 1.66 3.96 2 6 C1.01 6.495 1.01 6.495 0 7 C-0.66 6.67 -1.32 6.34 -2 6 C-1.67 6.99 -1.34 7.98 -1 9 C-1.99 9.33 -2.98 9.66 -4 10 C-4 11.65 -4 13.3 -4 15 C-5.32 15.33 -6.64 15.66 -8 16 C-5.36 10.72 -2.72 5.44 0 0 Z " fill="#C38F68" transform="translate(195,143)"/>
<path d="M0 0 C0.78375 0.04125 1.5675 0.0825 2.375 0.125 C2.705 0.785 3.035 1.445 3.375 2.125 C2.26125 2.4034375 2.26125 2.4034375 1.125 2.6875 C-2.79028579 4.73412666 -3.66875275 7.2125055 -5.625 11.125 C-6.285 11.125 -6.945 11.125 -7.625 11.125 C-7.17417531 9.66432801 -6.71406463 8.20651968 -6.25 6.75 C-5.99476563 5.93789063 -5.73953125 5.12578125 -5.4765625 4.2890625 C-4.23312676 1.12913865 -3.45188259 0.16437536 0 0 Z " fill="#CB9F82" transform="translate(257.625,22.875)"/>
<path d="M0 0 C0.66 0 1.32 0 2 0 C0.84414715 3.91211733 -0.35534962 6.8745041 -3 10 C-4.61949011 7.42786866 -5.04408751 6.32330841 -4.625 3.25 C-4.41875 2.5075 -4.2125 1.765 -4 1 C-2.02 1.495 -2.02 1.495 0 2 C0 1.34 0 0.68 0 0 Z " fill="#C78E62" transform="translate(199,177)"/>
<path d="M0 0 C0.66 0 1.32 0 2 0 C0.43181728 5.452999 -1.03810217 9.76486783 -5 14 C-5.32839609 9.2929894 -4.70790893 6.8535627 -2 3 C-1.34 2.01 -0.68 1.02 0 0 Z " fill="#CE9C73" transform="translate(254,67)"/>
<path d="M0 0 C1.98 0 3.96 0 6 0 C4.68938409 4.23429756 3.05643741 8.07407404 1 12 C0.4375 10.0625 0.4375 10.0625 0 8 C0.33 7.67 0.66 7.34 1 7 C1.19149081 3.36805359 1.19149081 3.36805359 0 0 Z " fill="#C89164" transform="translate(202,163)"/>
<path d="M0 0 C0.99 0 1.98 0 3 0 C1.125 5.75 1.125 5.75 0 8 C-0.99 8 -1.98 8 -3 8 C-1.125 2.25 -1.125 2.25 0 0 Z " fill="#D2A265" transform="translate(234,106)"/>
<path d="M0 0 C1.32 0.66 2.64 1.32 4 2 C3.34 3.32 2.68 4.64 2 6 C0.68 6 -0.64 6 -2 6 C-1.49396008 3.83125748 -1.00016187 2.00032373 0 0 Z " fill="#C38A5B" transform="translate(91,122)"/>
<path d="M0 0 C0.66 0 1.32 0 2 0 C1.30058404 3.14737182 0.23921302 6.02588876 -1 9 C-1.99 8.67 -2.98 8.34 -4 8 C-2.87548273 5.0280615 -1.77706209 2.66559313 0 0 Z " fill="#D7A568" transform="translate(247,81)"/>
<path d="M0 0 C0.66 0 1.32 0 2 0 C0.84414715 3.91211733 -0.35534962 6.8745041 -3 10 C-2.25 3.375 -2.25 3.375 0 0 Z " fill="#CA9166" transform="translate(211,153)"/>
<path d="M0 0 C0.763125 0.061875 1.52625 0.12375 2.3125 0.1875 C2.3125 0.8475 2.3125 1.5075 2.3125 2.1875 C3.3025 2.5175 4.2925 2.8475 5.3125 3.1875 C1.6825 3.1875 -1.9475 3.1875 -5.6875 3.1875 C-2.6875 0.1875 -2.6875 0.1875 0 0 Z " fill="#C69662" transform="translate(262.6875,22.8125)"/>
<path d="M0 0 C0.66 0 1.32 0 2 0 C0.90931332 3.77545388 0.0916909 6.47043472 -3 9 C-3 7.35 -3 5.7 -3 4 C-2.34 3.67 -1.68 3.34 -1 3 C-0.67 2.01 -0.34 1.02 0 0 Z " fill="#C08D67" transform="translate(133,80)"/>
<path d="M0 0 C2.64 0 5.28 0 8 0 C8 0.66 8 1.32 8 2 C5.36 2.33 2.72 2.66 0 3 C0 2.01 0 1.02 0 0 Z " fill="#D39261" transform="translate(132,49)"/>
<path d="M0 0 C0.99 0.33 1.98 0.66 3 1 C2.34 2.65 1.68 4.3 1 6 C0.01 6 -0.98 6 -2 6 C-2 5.01 -2 4.02 -2 3 C-1.34 3 -0.68 3 0 3 C0 2.01 0 1.02 0 0 Z " fill="#D6A653" transform="translate(224,126)"/>
<path d="M0 0 C0.66 0.99 1.32 1.98 2 3 C1.34 4.32 0.68 5.64 0 7 C-0.66 7 -1.32 7 -2 7 C-2 7.66 -2 8.32 -2 9 C-2.66 8.67 -3.32 8.34 -4 8 C-2.68 5.36 -1.36 2.72 0 0 Z " fill="#C49872" transform="translate(208,116)"/>
<path d="M0 0 C0.66 0 1.32 0 2 0 C0.25 5.75 0.25 5.75 -2 8 C-2.125 5.125 -2.125 5.125 -2 2 C-1.34 1.34 -0.68 0.68 0 0 Z " fill="#D9AA8D" transform="translate(258,60)"/>
</svg>
